<?xml version="1.0" encoding="UTF-8" standalone="no"?>
<!DOCTYPE svg PUBLIC "-//W3C//DTD SVG 1.1//EN" "http://www.w3.org/Graphics/SVG/1.1/DTD/svg11.dtd">
<svg width="100%" height="100%" viewBox="0 0 64 64" version="1.1" xmlns="http://www.w3.org/2000/svg" xmlns:xlink="http://www.w3.org/1999/xlink" xml:space="preserve" xmlns:serif="http://www.serif.com/" style="fill-rule:evenodd;clip-rule:evenodd;stroke-linejoin:round;stroke-miterlimit:2;">
    <g id="SVGRepo_iconCarrier">
        <g>
            <path d="M31.392,13.788C30.238,13.788 29.302,12.852 29.302,11.698L29.302,3.337C29.302,2.183 30.238,1.247 31.392,1.247C32.546,1.247 33.482,2.183 33.482,3.337L33.482,11.698C33.482,12.852 32.546,13.788 31.392,13.788Z" style="fill:white;fill-rule:nonzero;"/>
            <path d="M6.544,20.368C6.189,20.368 5.83,20.278 5.5,20.087L1.121,17.559C0.121,16.982 -0.22,15.704 0.357,14.704C0.934,13.702 2.213,13.362 3.212,13.939L7.591,16.468C8.591,17.045 8.932,18.322 8.355,19.323C7.969,19.993 7.265,20.368 6.544,20.368Z" style="fill:white;fill-rule:nonzero;"/>
        </g>
        <path d="M61.908,52.332C61.553,52.332 61.194,52.242 60.865,52.052L52.031,46.951C51.031,46.374 50.69,45.096 51.267,44.096C51.842,43.096 53.124,42.755 54.122,43.332L62.955,48.432C63.955,49.009 64.296,50.287 63.72,51.287C63.333,51.958 62.629,52.332 61.908,52.332Z" style="fill:white;fill-rule:nonzero;"/>
        <path d="M16.72,60.033C16.365,60.033 16.006,59.943 15.677,59.753C14.676,59.176 14.335,57.898 14.912,56.898L17.869,51.776C18.445,50.775 19.727,50.434 20.724,51.011C21.724,51.588 22.066,52.866 21.489,53.866L18.532,58.988C18.145,59.659 17.442,60.033 16.72,60.033Z" style="fill:white;fill-rule:nonzero;"/>
        <g>
            <path d="M43.894,12.967C43.538,12.967 43.179,12.878 42.85,12.687C41.85,12.11 41.508,10.832 42.085,9.832L46.094,2.889C46.671,1.888 47.95,1.547 48.949,2.124C49.949,2.701 50.291,3.979 49.714,4.979L45.705,11.922C45.318,12.593 44.615,12.967 43.894,12.967Z" style="fill:white;fill-rule:nonzero;"/>
            <path d="M60.617,34.69L52.256,34.69C51.102,34.69 50.166,33.754 50.166,32.6C50.166,31.446 51.102,30.51 52.256,30.51L60.617,30.51C61.771,30.51 62.707,31.446 62.707,32.6C62.707,33.754 61.771,34.69 60.617,34.69Z" style="fill:white;fill-rule:nonzero;"/>
        </g>
        <path d="M10.451,34.69L2.09,34.69C0.936,34.69 0,33.754 0,32.6C0,31.446 0.936,30.51 2.09,30.51L10.451,30.51C11.605,30.51 12.541,31.446 12.541,32.6C12.541,33.754 11.605,34.69 10.451,34.69Z" style="fill:white;fill-rule:nonzero;"/>
        <path d="M48.266,63.967C47.545,63.967 46.842,63.593 46.455,62.924L41.279,53.969C40.702,52.969 41.044,51.691 42.043,51.113C43.04,50.536 44.32,50.876 44.899,51.876L50.075,60.831C50.652,61.831 50.31,63.109 49.311,63.687C48.982,63.878 48.621,63.967 48.266,63.967Z" style="fill:white;fill-rule:nonzero;"/>
        <path d="M22.994,20.206C22.273,20.206 21.57,19.832 21.183,19.162L14.912,8.313C14.335,7.313 14.677,6.035 15.675,5.457C16.674,4.88 17.954,5.222 18.532,6.221L24.803,17.069C25.38,18.069 25.038,19.347 24.039,19.926C23.71,20.116 23.349,20.206 22.994,20.206Z" style="fill:white;fill-rule:nonzero;"/>
        <path d="M48.878,24.574C48.157,24.574 47.455,24.2 47.067,23.53C46.49,22.53 46.832,21.252 47.831,20.674L58.939,14.252C59.937,13.675 61.217,14.017 61.795,15.016C62.372,16.016 62.031,17.294 61.032,17.872L49.923,24.294C49.594,24.484 49.234,24.574 48.878,24.574Z" style="fill:white;fill-rule:nonzero;"/>
        <path d="M6.022,49.322C5.3,49.322 4.598,48.948 4.21,48.278C3.633,47.278 3.975,46 4.974,45.422L14.671,39.817C15.67,39.24 16.949,39.58 17.528,40.58C18.105,41.58 17.763,42.858 16.764,43.436L7.067,49.042C6.737,49.232 6.377,49.322 6.022,49.322Z" style="fill:white;fill-rule:nonzero;"/>
        <path d="M61.831,5.079L63.308,3.601C64.125,2.784 64.125,1.462 63.308,0.645C62.492,-0.171 61.169,-0.171 60.353,0.645L58.875,2.123L57.397,0.645C56.581,-0.171 55.258,-0.171 54.441,0.645C53.625,1.462 53.625,2.784 54.441,3.601L55.919,5.079L54.441,6.556C53.625,7.373 53.625,8.696 54.441,9.512C54.85,9.92 55.385,10.125 55.919,10.125C56.454,10.125 56.989,9.92 57.397,9.512L58.875,8.034L60.353,9.512C60.761,9.92 61.296,10.125 61.83,10.125C62.365,10.125 62.9,9.921 63.308,9.512C64.125,8.696 64.125,7.373 63.308,6.556L61.831,5.079Z" style="fill:white;fill-rule:nonzero;"/>
        <g>
            <circle cx="9.058" cy="10.304" r="2.09" style="fill:white;"/>
            <circle cx="3.484" cy="4.73" r="2.09" style="fill:white;"/>
        </g>
        <g>
            <circle cx="59.223" cy="60.471" r="2.09" style="fill:white;"/>
            <circle cx="53.649" cy="54.897" r="2.09" style="fill:white;"/>
        </g>
        <path d="M39.599,47.531C39.265,47.531 38.932,47.452 38.626,47.292L31.354,43.466L24.081,47.292C23.376,47.66 22.526,47.599 21.879,47.132C21.236,46.664 20.913,45.872 21.048,45.087L22.437,36.989L16.554,31.254C15.984,30.699 15.779,29.868 16.025,29.111C16.271,28.354 16.926,27.803 17.712,27.689L25.843,26.508L29.48,19.139C29.831,18.426 30.557,17.974 31.353,17.974C32.15,17.974 32.876,18.426 33.227,19.139L36.863,26.508L44.994,27.689C45.781,27.803 46.436,28.354 46.682,29.111C46.928,29.868 46.723,30.699 46.152,31.254L40.27,36.989L41.659,45.087C41.794,45.872 41.471,46.664 40.828,47.132C40.463,47.396 40.031,47.531 39.599,47.531Z" style="fill:white;fill-rule:nonzero;"/>
        <circle cx="13.586" cy="22.777" r="2.09" style="fill:white;"/>
        <g>
            <circle cx="39.714" cy="17.969" r="2.09" style="fill:white;"/>
            <circle cx="47.03" cy="40.962" r="2.09" style="fill:white;"/>
        </g>
        <path d="M8.181,58.728L9.659,57.25C10.476,56.434 10.476,55.111 9.659,54.295C8.843,53.478 7.52,53.478 6.703,54.295L5.226,55.772L3.748,54.295C2.931,53.478 1.609,53.478 0.792,54.295C-0.024,55.111 -0.024,56.434 0.792,57.25L2.27,58.728L0.792,60.206C-0.024,61.022 -0.024,62.345 0.792,63.162C1.2,63.57 1.735,63.774 2.27,63.774C2.804,63.774 3.339,63.57 3.747,63.162L5.225,61.684L6.703,63.162C7.111,63.57 7.646,63.774 8.181,63.774C8.715,63.774 9.25,63.57 9.659,63.162C10.475,62.345 10.475,61.022 9.659,60.206L8.181,58.728Z" style="fill:white;fill-rule:nonzero;"/>
        <path d="M38.626,47.292C38.932,47.452 39.265,47.531 39.599,47.531C40.031,47.531 40.463,47.396 40.827,47.133C41.471,46.664 41.794,45.872 41.659,45.087L40.269,36.989L46.152,31.254C46.723,30.699 46.928,29.868 46.682,29.111C46.435,28.354 45.781,27.803 44.994,27.689L36.863,26.508L33.227,19.139C32.876,18.426 32.149,17.974 31.353,17.974L31.353,43.466L38.626,47.292Z" style="fill:white;fill-rule:nonzero;"/>
        <path d="M33.482,11.698L33.482,3.337C33.482,2.183 32.546,1.247 31.392,1.247L31.392,13.788C32.546,13.788 33.482,12.852 33.482,11.698Z" style="fill:white;fill-rule:nonzero;"/>
        <path d="M31.392,63.954C30.238,63.954 29.302,63.018 29.302,61.864L29.302,50.38C29.302,49.226 30.238,48.289 31.392,48.289C32.546,48.289 33.482,49.226 33.482,50.38L33.482,61.864C33.482,63.017 32.546,63.954 31.392,63.954Z" style="fill:white;fill-rule:nonzero;"/>
        <path d="M33.482,61.864L33.482,50.38C33.482,49.226 32.546,48.289 31.392,48.289L31.392,63.954C32.546,63.954 33.482,63.017 33.482,61.864Z" style="fill:white;fill-rule:nonzero;"/>
    </g>
</svg>
