<svg width="78" height="78" viewBox="0 0 78 78" fill="none" xmlns="http://www.w3.org/2000/svg">
<path d="M39 0C31.2865 0 23.7463 2.26348 17.3328 6.50422C10.9193 10.745 5.92053 16.7725 2.96872 23.8246C0.0168979 30.8766 -0.755432 38.6366 0.749392 46.123C2.25422 53.6095 5.9686 60.4862 11.4229 65.8837C16.8771 71.2811 23.8262 74.9568 31.3915 76.4459C38.9568 77.9351 46.7983 77.1708 53.9247 74.2497C61.051 71.3287 67.142 66.382 71.4273 60.0353C75.7127 53.6886 78 46.2269 78 38.5938C77.9891 28.3614 73.8767 18.5512 66.5651 11.3158C59.2536 4.08039 49.3401 0.0108056 39 0ZM39 71.25C32.4732 71.25 26.093 69.3347 20.6662 65.7464C15.2394 62.1581 11.0097 57.0579 8.51199 51.0908C6.0143 45.1236 5.36079 38.5575 6.6341 32.2228C7.90742 25.8881 11.0504 20.0694 15.6655 15.5023C20.2806 10.9352 26.1607 7.82503 32.562 6.56498C38.9634 5.30493 45.5986 5.95164 51.6286 8.42331C57.6585 10.895 62.8124 15.0806 66.4385 20.4509C70.0646 25.8212 72 32.135 72 38.5938C71.9901 47.2517 68.5101 55.5523 62.3236 61.6744C56.137 67.7965 47.7491 71.2402 39 71.25ZM55.6575 18.1242L31.6575 29.9992C31.0773 30.2876 30.6065 30.7535 30.315 31.3277L18.315 55.0777C18.0861 55.5305 17.9779 56.0337 18.0009 56.5395C18.0239 57.0453 18.1772 57.5369 18.4462 57.9675C18.7153 58.3981 19.0912 58.7535 19.5382 58.9999C19.9852 59.2462 20.4884 59.3754 21 59.375C21.4657 59.3743 21.9251 59.2677 22.3425 59.0633L46.3425 47.1883C46.9228 46.8999 47.3935 46.434 47.685 45.8598L59.685 22.1098C59.9681 21.5521 60.0665 20.9204 59.966 20.3043C59.8656 19.6882 59.5716 19.119 59.1256 18.6778C58.6797 18.2365 58.1046 17.9455 57.482 17.8461C56.8594 17.7467 56.221 17.8441 55.6575 18.1242ZM42.75 42.3047L27.7088 49.7674L35.25 34.8828L50.3063 27.435L42.75 42.3047Z" fill="url(#paint0_linear_171_98)"/>
<defs>
<linearGradient id="paint0_linear_171_98" x1="39" y1="0" x2="39" y2="77.1875" gradientUnits="userSpaceOnUse">
<stop stop-color="#FDBF51"/>
<stop offset="1" stop-color="#83B841"/>
</linearGradient>
</defs>
</svg>
