<svg width="90" height="69" viewBox="0 0 90 69" fill="none" xmlns="http://www.w3.org/2000/svg">
<path d="M89.0652 20.7896C89.0666 19.1622 88.6858 17.5572 87.9533 16.1039C87.2209 14.6507 86.1573 13.3898 84.8483 12.4228C83.5393 11.4559 82.0215 10.8099 80.4171 10.537C78.8128 10.2641 77.1667 10.3718 75.6116 10.8516C74.0565 11.3313 72.6359 12.1696 71.4641 13.2989C70.2923 14.4283 69.4022 15.817 68.8654 17.3534C68.3287 18.8897 68.1603 20.5307 68.3738 22.144C68.5874 23.7573 69.1769 25.2979 70.0949 26.6417L60.1533 38.8878L51.2137 18.3403C52.8441 16.9681 54.0132 15.1277 54.5624 13.0687C55.1117 11.0097 55.0145 8.83153 54.2842 6.82955C53.5538 4.82757 52.2256 3.09857 50.4795 1.8769C48.7334 0.655241 46.6539 0 44.5228 0C42.3918 0 40.3123 0.655241 38.5662 1.8769C36.8201 3.09857 35.4918 4.82757 34.7615 6.82955C34.0311 8.83153 33.934 11.0097 34.4833 13.0687C35.0325 15.1277 36.2016 16.9681 37.832 18.3403L28.9146 38.8767L18.973 26.6306C20.2501 24.7593 20.8806 22.522 20.7685 20.2592C20.6565 17.9965 19.8079 15.8324 18.3521 14.0965C16.8964 12.3606 14.9131 11.1481 12.7045 10.6436C10.4959 10.1391 8.18291 10.3702 6.11781 11.3019C4.05272 12.2335 2.34869 13.8145 1.26525 15.8042C0.181805 17.7938 -0.221674 20.083 0.116259 22.3232C0.454192 24.5634 1.51502 26.6317 3.13717 28.2132C4.75933 29.7947 6.85392 30.8027 9.10194 31.0837L14.4754 63.328C14.7064 64.7143 15.4216 65.9737 16.4939 66.8822C17.5661 67.7907 18.9259 68.2894 20.3312 68.2896H68.7367C70.1421 68.2894 71.5018 67.7907 72.5741 66.8822C73.6463 65.9737 74.3616 64.7143 74.5926 63.328L79.9623 31.0985C82.4753 30.7847 84.7871 29.5639 86.4633 27.6656C88.1396 25.7672 89.0648 23.3221 89.0652 20.7896ZM44.534 5.94581C45.4147 5.94581 46.2757 6.20698 47.008 6.6963C47.7403 7.18562 48.3111 7.8811 48.6481 8.6948C48.9852 9.5085 49.0734 10.4039 48.9015 11.2677C48.7297 12.1315 48.3056 12.925 47.6828 13.5478C47.06 14.1706 46.2665 14.5947 45.4027 14.7665C44.5389 14.9383 43.6435 14.8501 42.8298 14.5131C42.0161 14.176 41.3206 13.6053 40.8313 12.873C40.342 12.1406 40.0808 11.2797 40.0808 10.3989C40.0808 9.2179 40.55 8.08523 41.3851 7.2501C42.2203 6.41498 43.3529 5.94581 44.534 5.94581ZM5.94022 20.7896C5.94022 19.9088 6.20139 19.0479 6.6907 18.3155C7.18002 17.5832 7.8755 17.0125 8.6892 16.6754C9.50291 16.3384 10.3983 16.2502 11.2621 16.422C12.1259 16.5938 12.9194 17.0179 13.5422 17.6407C14.165 18.2635 14.5891 19.057 14.7609 19.9208C14.9327 20.7846 14.8445 21.68 14.5075 22.4937C14.1704 23.3074 13.5997 24.0029 12.8674 24.4922C12.1351 24.9815 11.2741 25.2427 10.3933 25.2427C9.2123 25.2427 8.07963 24.7735 7.24451 23.9384C6.40938 23.1033 5.94022 21.9706 5.94022 20.7896ZM68.7367 62.3521H20.3312L15.1656 31.3732L27.3857 46.395C27.6625 46.7407 28.0131 47.0201 28.4118 47.2128C28.8106 47.4054 29.2474 47.5064 29.6902 47.5083C29.8243 47.5089 29.9582 47.5002 30.091 47.4823C30.5968 47.4136 31.0763 47.2156 31.4832 46.9075C31.8901 46.5993 32.2107 46.1915 32.414 45.7234L43.2871 20.7116C44.1151 20.8155 44.9528 20.8155 45.7808 20.7116L56.6539 45.7234C56.8572 46.1915 57.1778 46.5993 57.5848 46.9075C57.9917 47.2156 58.4712 47.4136 58.9769 47.4823C59.1098 47.5002 59.2437 47.5089 59.3777 47.5083C59.8206 47.5064 60.2573 47.4054 60.6561 47.2128C61.0548 47.0201 61.4054 46.7407 61.6822 46.395L73.9023 31.3583L68.7367 62.3521ZM78.6746 25.2427C77.7938 25.2427 76.9329 24.9815 76.2006 24.4922C75.4683 24.0029 74.8975 23.3074 74.5604 22.4937C74.2234 21.68 74.1352 20.7846 74.307 19.9208C74.4789 19.057 74.903 18.2635 75.5258 17.6407C76.1485 17.0179 76.942 16.5938 77.8058 16.422C78.6697 16.2502 79.565 16.3384 80.3787 16.6754C81.1924 17.0125 81.8879 17.5832 82.3772 18.3155C82.8665 19.0479 83.1277 19.9088 83.1277 20.7896C83.1277 21.9706 82.6585 23.1033 81.8234 23.9384C80.9883 24.7735 79.8556 25.2427 78.6746 25.2427Z" fill="url(#paint0_linear_171_100)"/>
<defs>
<linearGradient id="paint0_linear_171_100" x1="44.5326" y1="0" x2="44.5326" y2="68.2896" gradientUnits="userSpaceOnUse">
<stop stop-color="#E96351"/>
<stop offset="1" stop-color="#FDBF51"/>
</linearGradient>
</defs>
</svg>
