<?xml version="1.0" encoding="UTF-8" standalone="no"?>
<!DOCTYPE svg PUBLIC "-//W3C//DTD SVG 1.1//EN" "http://www.w3.org/Graphics/SVG/1.1/DTD/svg11.dtd">
<svg width="100%" height="100%" viewBox="0 0 64 64" version="1.1" xmlns="http://www.w3.org/2000/svg" xmlns:xlink="http://www.w3.org/1999/xlink" xml:space="preserve" xmlns:serif="http://www.serif.com/" style="fill-rule:evenodd;clip-rule:evenodd;stroke-linejoin:round;stroke-miterlimit:2;">
    <g id="SVGRepo_iconCarrier">
        <g>
            <g id="venture-risk-climb-mountain-success_1_">
                <path d="M61,30L61,1C61,0.668 60.835,0.358 60.561,0.172C60.286,-0.014 59.937,-0.052 59.629,0.071L49.629,4.071C49.249,4.224 49,4.591 49,5C49,5.409 49.249,5.776 49.628,5.929L59,9.677L59,30L58,30C57.735,30 57.48,30.105 57.293,30.293L39.5,48.086L35.707,44.293C35.316,43.902 34.684,43.902 34.293,44.293L22.5,56.086L15.207,48.793C14.816,48.402 14.184,48.402 13.793,48.793L0.293,62.293C0.105,62.48 0,62.734 0,63L0,64L2,64L2,63.414L14.5,50.914L21.793,58.207C22.184,58.598 22.816,58.598 23.207,58.207L35,46.414L38.793,50.207C39.184,50.598 39.816,50.598 40.207,50.207L58.414,32L64,32L64,30L61,30ZM52.692,5L59,2.477L59,7.524L52.692,5Z" style="fill:white;fill-rule:nonzero;"/>
                <path d="M1.726,43.687C4.15,41.125 9.186,42.734 12.195,43.694C13.442,44.092 14.641,44.291 15.774,44.291C16.927,44.291 18.003,44.063 19,43.655L19,50C19,50.553 19.448,51 20,51L25,51C25.552,51 26,50.553 26,50L26,40.283C26.221,39.953 26.63,39.695 27.253,39.39C27.454,39.291 27.659,39.2 27.864,39.109C28.437,38.853 29.03,38.588 29.584,38.177C30.237,37.693 30.722,36.86 30.915,36L33,36L33,42C33,42.553 33.448,43 34,43L39,43C39.552,43 40,42.553 40,42L40,34C40,31.243 37.757,29 35,29L29,29L29,26L34,26C36.757,26 39,23.757 39,21L39,12C39,11.447 38.552,11 38,11L34,11C33.448,11 33,11.447 33,12L33,20L28.11,20C28.623,19.116 28.922,18.093 28.922,17C28.922,13.691 26.231,11 22.922,11C19.613,11 16.922,13.691 16.922,17C16.922,18.002 17.172,18.945 17.608,19.777C14.23,20.773 11.185,23.011 8.763,26.328C7.687,27.801 6.89,29.479 6.119,31.101C5.913,31.535 5.708,31.966 5.5,32.389C5.031,33.341 4.589,34.381 4.161,35.387C3.089,37.905 1.982,40.508 0.275,42.312L0.274,42.313C-0.106,42.714 -0.088,43.347 0.313,43.727C0.714,44.105 1.348,44.089 1.726,43.687ZM19,30.742L17.835,29.578L19,28.414L19,30.742ZM28.394,36.569C28.015,36.85 27.545,37.059 27.049,37.282C26.822,37.383 26.596,37.484 26.374,37.593C26.251,37.653 26.126,37.723 26,37.789L26,36L28.81,36C28.698,36.236 28.555,36.45 28.394,36.569ZM34,22C34.552,22 35,21.553 35,21L35,13L37,13L37,21C37,22.654 35.654,24 34,24L28,24C27.448,24 27,24.447 27,25L27,30C27,30.553 27.448,31 28,31L35,31C36.654,31 38,32.346 38,34L38,41L35,41L35,35C35,34.447 34.552,34 34,34L25,34C24.448,34 24,34.447 24,35L24,49L21,49L21,26C21,25.596 20.756,25.23 20.383,25.076C20.009,24.92 19.58,25.007 19.293,25.293L15.714,28.871C15.526,29.059 15.421,29.312 15.421,29.578C15.421,29.844 15.526,30.098 15.714,30.285L18.507,33.078L16.921,34.664L13.957,31.7C12.788,30.53 12.788,28.627 13.957,27.457L19.495,21.919C20.468,22.598 21.648,23 22.921,23C22.948,23 22.973,22.996 23,22.996L23,29L25,29L25,22.621C25.436,22.459 25.849,22.253 26.231,22L34,22ZM22.921,13C25.127,13 26.921,14.794 26.921,17C26.921,19.206 25.127,21 22.921,21C20.715,21 18.921,19.206 18.921,17C18.921,14.794 20.716,13 22.921,13ZM6.001,36.17C6.438,35.144 6.85,34.175 7.294,33.272C7.506,32.841 7.715,32.402 7.925,31.96C8.656,30.421 9.412,28.829 10.377,27.508C11.601,25.832 13.484,23.812 16.075,22.512L12.542,26.045C10.593,27.994 10.593,31.167 12.542,33.116L16.213,36.787C16.604,37.178 17.236,37.178 17.627,36.787L19,35.414L19,41.432C16.898,42.665 14.497,42.33 12.803,41.79C10.45,41.038 7.017,39.944 4.031,40.415C4.773,39.055 5.393,37.6 6.001,36.17Z" style="fill:white;fill-rule:nonzero;"/>
            </g>
        </g>
    </g>
</svg>
