<svg width="80" height="77" viewBox="0 0 80 77" fill="none" xmlns="http://www.w3.org/2000/svg">
<path d="M19.8375 38.5938C19.8587 46.3811 18.0593 54.0655 14.5828 61.0338C14.4169 61.3951 14.18 61.7193 13.8864 61.9873C13.5928 62.2554 13.2483 62.4617 12.8734 62.594C12.4985 62.7264 12.1009 62.7821 11.704 62.7579C11.3072 62.7336 10.9193 62.6299 10.5633 62.4529C10.2073 62.2759 9.89052 62.0292 9.63168 61.7275C9.37284 61.4257 9.17725 61.075 9.05651 60.6962C8.93577 60.3175 8.89234 59.9183 8.9288 59.5224C8.96526 59.1265 9.08086 58.742 9.26875 58.3916C12.334 52.2433 13.9199 45.4637 13.9 38.5938C13.893 34.5876 14.7904 30.6315 16.5253 27.0204C18.2601 23.4094 20.7877 20.2365 23.9195 17.7383C24.5342 17.2462 25.3191 17.0184 26.1017 17.105C26.8843 17.1917 27.6004 17.5857 28.0925 18.2003C28.5846 18.8149 28.8124 19.5999 28.7257 20.3825C28.6391 21.165 28.2451 21.8811 27.6305 22.3732C25.194 24.3157 23.2277 26.7833 21.8784 29.592C20.529 32.4006 19.8313 35.4778 19.8375 38.5938ZM40.6187 35.625C39.8314 35.625 39.0763 35.9378 38.5195 36.4945C37.9628 37.0513 37.65 37.8064 37.65 38.5938C37.6494 50.16 34.7126 61.5368 29.1148 71.6582C28.733 72.3471 28.6404 73.1596 28.8576 73.9167C29.0747 74.6739 29.5837 75.3138 30.2727 75.6957C30.9616 76.0776 31.774 76.1701 32.5312 75.953C33.2884 75.7359 33.9283 75.2268 34.3102 74.5379C40.3945 63.5347 43.5866 51.1672 43.5875 38.5938C43.5875 37.8064 43.2747 37.0513 42.718 36.4945C42.1612 35.9378 41.4061 35.625 40.6187 35.625ZM40.6187 23.75C36.6819 23.75 32.9064 25.3139 30.1226 28.0976C27.3389 30.8814 25.775 34.6569 25.775 38.5938C25.775 39.3811 26.0878 40.1362 26.6445 40.693C27.2013 41.2497 27.9564 41.5625 28.7437 41.5625C29.5311 41.5625 30.2862 41.2497 30.843 40.693C31.3997 40.1362 31.7125 39.3811 31.7125 38.5938C31.7125 36.2317 32.6508 33.9663 34.3211 32.2961C35.9913 30.6258 38.2567 29.6875 40.6187 29.6875C42.9808 29.6875 45.2462 30.6258 46.9164 32.2961C48.5867 33.9663 49.525 36.2317 49.525 38.5938C49.5558 50.3981 46.9557 62.0609 41.9139 72.7344C41.7474 73.0879 41.6523 73.4708 41.6338 73.8611C41.6154 74.2515 41.674 74.6416 41.8063 75.0093C41.9386 75.377 42.1421 75.715 42.405 76.004C42.668 76.2931 42.9853 76.5275 43.3389 76.6939C43.6924 76.8604 44.0753 76.9555 44.4656 76.974C44.856 76.9924 45.2461 76.9338 45.6138 76.8015C45.9815 76.6692 46.3195 76.4657 46.6085 76.2028C46.8976 75.9398 47.132 75.6225 47.2984 75.2689C52.7102 63.8021 55.4991 51.2735 55.4625 38.5938C55.4625 34.6569 53.8986 30.8814 51.1149 28.0976C48.3311 25.3139 44.5556 23.75 40.6187 23.75ZM40.6187 0C30.3864 0.0108056 20.5762 4.08039 13.3408 11.3158C6.10539 18.5512 2.0358 28.3614 2.025 38.5938C2.03051 42.301 1.403 45.9819 0.169528 49.4779C-0.0927622 50.2205 -0.0493206 51.0369 0.290296 51.7474C0.629913 52.458 1.23788 53.0045 1.98046 53.2668C2.72304 53.5291 3.53941 53.4856 4.24996 53.146C4.96051 52.8064 5.50704 52.1984 5.76933 51.4559C7.22578 47.3242 7.96745 42.9746 7.9625 38.5938C7.9625 29.9328 11.4031 21.6265 17.5273 15.5023C23.6515 9.37806 31.9578 5.9375 40.6187 5.9375C49.2797 5.9375 57.586 9.37806 63.7102 15.5023C69.8344 21.6265 73.275 29.9328 73.275 38.5938C73.2765 45.3768 72.619 52.1439 71.3119 58.7998C71.2363 59.1824 71.2368 59.5761 71.3134 59.9584C71.3899 60.3408 71.5411 60.7043 71.7582 61.0283C71.9753 61.3522 72.2541 61.6302 72.5787 61.8464C72.9032 62.0625 73.2672 62.2126 73.6498 62.2881C73.8393 62.3248 74.0319 62.3434 74.225 62.3438C74.912 62.343 75.5775 62.1041 76.108 61.6676C76.6385 61.2311 77.0013 60.6242 77.1344 59.9502C78.5169 52.9154 79.2128 45.7631 79.2125 38.5938C79.2007 28.3617 75.1308 18.552 67.8956 11.3169C60.6605 4.08169 50.8508 0.0117859 40.6187 0ZM28.15 47.5631C27.38 47.4099 26.5808 47.5679 25.927 48.0026C25.2733 48.4373 24.8184 49.1132 24.6617 49.8824C23.4571 55.8112 21.3004 61.5057 18.2752 66.7449C17.8815 67.427 17.7749 68.2375 17.9788 68.9981C18.1827 69.7588 18.6804 70.4073 19.3625 70.801C20.0445 71.1947 20.8551 71.3013 21.6157 71.0974C22.3764 70.8935 23.0249 70.3957 23.4186 69.7137C26.7617 63.92 29.1429 57.6224 30.4693 51.0662C30.5473 50.6839 30.5492 50.2899 30.4748 49.9069C30.4005 49.5238 30.2513 49.1592 30.0359 48.8338C29.8205 48.5085 29.543 48.2288 29.2194 48.0107C28.8958 47.7927 28.5324 47.6406 28.15 47.5631ZM40.6187 11.875C39.5022 11.8752 38.3868 11.9446 37.2789 12.0828C36.5123 12.1979 35.8211 12.6083 35.3531 13.2262C34.885 13.8442 34.6773 14.6207 34.7742 15.3899C34.8711 16.159 35.265 16.8597 35.8718 17.3422C36.4785 17.8247 37.2499 18.0508 38.0211 17.9721C40.9457 17.6084 43.9143 17.8701 46.7302 18.7398C49.5462 19.6095 52.1453 21.0673 54.3555 23.0169C56.5657 24.9664 58.3367 27.3632 59.5511 30.0486C60.7655 32.7339 61.3957 35.6466 61.4 38.5938C61.3991 42.4394 61.1612 46.2813 60.6875 50.0977C60.6354 50.4858 60.6606 50.8804 60.7617 51.2587C60.8628 51.637 61.0377 51.9916 61.2764 52.302C61.5151 52.6125 61.8128 52.8726 62.1525 53.0675C62.4921 53.2624 62.867 53.3881 63.2555 53.4375C63.3786 53.4523 63.5025 53.4597 63.6266 53.4598C64.3485 53.4582 65.0452 53.1936 65.5862 52.7155C66.1272 52.2373 66.4754 51.5784 66.5656 50.8621C67.0662 46.7994 67.3141 42.7095 67.3078 38.616C67.3059 31.5335 64.495 24.7408 59.4918 19.7278C54.4885 14.7148 47.7013 11.8907 40.6187 11.875ZM62.1162 59.4678C61.7385 59.3701 61.3453 59.3478 60.959 59.4022C60.5727 59.4566 60.2009 59.5866 59.8649 59.7848C59.5289 59.983 59.2352 60.2454 59.0007 60.5572C58.7661 60.8689 58.5953 61.2238 58.498 61.6016C57.9562 63.7131 57.3291 65.832 56.6426 67.9102C56.3914 68.6547 56.4456 69.4686 56.7934 70.1732C57.1412 70.8779 57.7542 71.4159 58.498 71.6693C58.8027 71.773 59.1225 71.8257 59.4443 71.8252C60.0664 71.8247 60.6725 71.6289 61.1772 71.2653C61.682 70.9018 62.0597 70.3889 62.2572 69.799C62.9994 67.6021 63.6637 65.3459 64.2426 63.1008C64.3421 62.7231 64.3661 62.3295 64.3132 61.9425C64.2603 61.5555 64.1316 61.1828 63.9344 60.8456C63.7372 60.5085 63.4755 60.2136 63.1641 59.9778C62.8527 59.742 62.4979 59.5699 62.1199 59.4715L62.1162 59.4678Z" fill="url(#paint0_linear_171_104)"/>
<defs>
<linearGradient id="paint0_linear_171_104" x1="39.6062" y1="0" x2="39.6062" y2="76.9773" gradientUnits="userSpaceOnUse">
<stop stop-color="#39AAE1"/>
<stop offset="1" stop-color="#40BCBC"/>
</linearGradient>
</defs>
</svg>
