<svg width="90" height="69" viewBox="0 0 90 69" fill="none" xmlns="http://www.w3.org/2000/svg">
<path d="M85.474 40.4718C84.5032 39.7237 83.3903 39.1809 82.203 38.8766C81.0158 38.5723 79.779 38.5128 78.568 38.7017C85.5371 31.6658 89.0625 24.6707 89.0625 17.8128C89.0625 7.99 81.1619 0.000348193 71.4504 0.000348193C68.8735 -0.015834 66.3244 0.532217 63.9819 1.60603C61.6394 2.67983 59.5603 4.25337 57.8906 6.21617C56.2209 4.25337 54.1419 2.67983 51.7994 1.60603C49.4569 0.532217 46.9077 -0.015834 44.3309 0.000348193C34.6193 0.000348193 26.7188 7.99 26.7188 17.8128C26.7188 21.8949 27.9211 25.8619 30.452 30.0589C28.3792 30.5841 26.4875 31.6614 24.9783 33.1761L16.5842 41.5628H5.9375C4.36278 41.5628 2.85255 42.1884 1.73905 43.3019C0.625556 44.4154 0 45.9256 0 47.5003L0 62.3441C0 63.9188 0.625556 65.429 1.73905 66.5425C2.85255 67.656 4.36278 68.2816 5.9375 68.2816H44.5312C44.774 68.2817 45.0158 68.2518 45.2512 68.1925L69.0012 62.255C69.1526 62.219 69.3004 62.1693 69.4428 62.1066L83.8672 55.9687L84.0305 55.8945C85.4168 55.2018 86.6039 54.1675 87.48 52.8892C88.3561 51.6109 88.8924 50.1306 89.0383 48.5877C89.1842 47.0449 88.9349 45.4903 88.3139 44.0704C87.6929 42.6506 86.7207 41.4121 85.4889 40.4718H85.474ZM44.3309 5.93785C46.6302 5.9042 48.8873 6.55711 50.8136 7.8131C52.7399 9.06909 54.2478 10.8711 55.1445 12.9886C55.3682 13.5331 55.7487 13.9988 56.2377 14.3266C56.7266 14.6544 57.302 14.8294 57.8906 14.8294C58.4793 14.8294 59.0546 14.6544 59.5436 14.3266C60.0326 13.9988 60.413 13.5331 60.6367 12.9886C61.5334 10.8711 63.0413 9.06909 64.9676 7.8131C66.8939 6.55711 69.151 5.9042 71.4504 5.93785C77.7775 5.93785 83.125 11.3744 83.125 17.8128C83.125 25.0529 77.2654 33.2429 66.1809 41.5257L62.0654 42.472C62.4267 40.9461 62.4378 39.3581 62.0981 37.8272C61.7583 36.2963 61.0765 34.8622 60.1036 33.6323C59.1308 32.4024 57.8922 31.4087 56.4806 30.7256C55.0691 30.0424 53.5213 29.6877 51.9531 29.6878H37.3617C34.1592 25.3683 32.6562 21.5683 32.6562 17.8128C32.6562 11.3744 38.0037 5.93785 44.3309 5.93785ZM5.9375 47.5003H14.8438V62.3441H5.9375V47.5003ZM81.4291 50.547L67.3275 56.5513L44.1602 62.3441H20.7812V45.7599L29.1791 37.3658C29.7285 36.812 30.3824 36.373 31.1029 36.0742C31.8234 35.7754 32.5962 35.6229 33.3762 35.6253H51.9531C53.1342 35.6253 54.2668 36.0945 55.102 36.9296C55.9371 37.7648 56.4062 38.8974 56.4062 40.0785C56.4062 41.2595 55.9371 42.3922 55.102 43.2273C54.2668 44.0624 53.1342 44.5316 51.9531 44.5316H41.5625C40.7751 44.5316 40.02 44.8444 39.4633 45.4011C38.9065 45.9579 38.5938 46.713 38.5938 47.5003C38.5938 48.2877 38.9065 49.0428 39.4633 49.5996C40.02 50.1563 40.7751 50.4691 41.5625 50.4691H53.4375C53.661 50.4685 53.8837 50.4436 54.1018 50.3949L78.965 44.6763L79.0801 44.6466C79.8391 44.4359 80.6492 44.5134 81.3545 44.864C82.0599 45.2147 82.6106 45.8138 82.9008 46.5461C83.1909 47.2785 83.2 48.0922 82.9263 48.8308C82.6525 49.5694 82.1153 50.1807 81.418 50.547H81.4291Z" fill="url(#paint0_linear_171_96)"/>
<defs>
<linearGradient id="paint0_linear_171_96" x1="44.5394" y1="0" x2="44.5394" y2="68.2816" gradientUnits="userSpaceOnUse">
<stop stop-color="#83B841"/>
<stop offset="1" stop-color="#39AAE1"/>
</linearGradient>
</defs>
</svg>
