<!DOCTYPE svg PUBLIC "-//W3C//DTD SVG 1.1//EN" "http://www.w3.org/Graphics/SVG/1.1/DTD/svg11.dtd">
<!-- Uploaded to: SVG Repo, www.svgrepo.com, Transformed by: SVG Repo Mixer Tools -->
<svg version="1.1" id="Uploaded to svgrepo.com" xmlns="http://www.w3.org/2000/svg" xmlns:xlink="http://www.w3.org/1999/xlink" width="64px" height="64px" viewBox="0 0 32 32" xml:space="preserve" fill="#FFFFFF">
<path class="blueprint_een" d="M24,11H8v-1h16V11z M24,13H8v1h16V13z M24,16H8v1h16V16z M32,3v22c0,0.552-0.448,1-1,1H20 l-3.293,3.293c-0.195,0.195-0.451,0.293-0.707,0.293s-0.512-0.098-0.707-0.293L12,26H1c-0.552,0-1-0.448-1-1V3c0-0.552,0.448-1,1-1 h30C31.552,2,32,2.448,32,3z M30,4H2v20h10.828L16,27.172L19.172,24H30V4z"/>
</svg>