<svg width="360" height="360" xmlns="http://www.w3.org/2000/svg" data-name="Layer 1">
 <defs>
  <clipPath id="clip-path">
   <rect id="svg_1" fill="none" height="248.62" width="268.43" y="23.04" x="45.79" class="cls-1"/>
  </clipPath>
 </defs>
 <title>ic-logo-color</title>
 <g>
  <title>Layer 1</title>
  <path id="svg_2" fill="#ffffff" d="m180.17,231.52c-46.62,0 -84.55,-37.8 -84.55,-84.26l5.65,0c0,43.35 35.39,78.61 78.9,78.61s78.91,-35.26 78.91,-78.61l5.65,0c0,46.46 -37.93,84.26 -84.56,84.26" class="cls-2"/>
  <polygon id="svg_3" fill="#ffffff" points="181.08 147.81 134.57 119.29 134.57 141.44 45.78 141.44 45.78 154.19 134.57 154.19 134.57 176.33 181.08 147.81 181.08 147.81" class="cls-3"/>
  <path id="svg_4" fill="#ffffff" d="m264.73,147.26l-5.65,0c0,-43.35 -35.4,-78.61 -78.91,-78.61s-78.9,35.26 -78.9,78.61l-5.65,0c0,-46.46 37.93,-84.26 84.55,-84.26s84.56,37.8 84.56,84.26" class="cls-3"/>
  <polygon id="svg_5" fill="#ffffff" points="314.21 141.44 226.91 141.44 226.91 119.16 190.57 141.44 190.02 141.44 190.02 141.78 180.18 147.81 190.02 153.85 190.02 154.19 190.57 154.19 226.91 176.47 226.91 154.19 314.21 154.19 314.21 141.44 314.21 141.44" class="cls-2"/>
  <polygon id="svg_6" fill="#ffffff" points="93.78 90.51 76.48 78.44 79.29 74.45 96.58 86.52 93.78 90.51 93.78 90.51" class="cls-2"/>
  <path id="svg_7" fill="#ffffff" d="m101.45,79.49l-14.3,-15.49l3.85,-3.54l15,7.08l-5.78,-15.54l3.89,-3.56l14.29,15.56l-3.5,3.21l-7.83,-8.46l1.39,3l3.08,8.53l-3.24,3l-8.3,-3.84c-1.61,-0.89 -2.56,-1.44 -2.9,-1.63l7.9,8.47l-3.5,3.21l-0.05,0z" class="cls-2"/>
  <path id="svg_8" fill="#ffffff" d="m125.17,59.37l-9.07,-19l4.77,-2.26l12.25,11.19l-1,-16.53l4.77,-2.26l9.06,19l-4.3,2l-5,-10.38l0.44,3.28l0.41,9.05l-4,1.89l-6.79,-6l-2.28,-2.41l5,10.39l-4.3,2l0.04,0.04z" class="cls-2"/>
  <g id="svg_9" clip-path="url(#clip-path)" class="cls-4">
   <polygon id="svg_10" fill="#ffffff" points="154.41 47.62 149.7 27.13 154.46 26.04 159.17 46.53 154.41 47.62 154.41 47.62" class="cls-2"/>
   <path id="svg_11" fill="#ffffff" d="m184.38,44.32l-0.91,-2.53a7.28,7.28 0 0 1 -6.28,3.14a9.87,9.87 0 0 1 -7.59,-2.93a10.78,10.78 0 0 1 -3.19,-7.77a10.5,10.5 0 0 1 3,-7.92a11,11 0 0 1 7.85,-3.3c4.23,-0.11 7.84,1.81 9.52,4.9l-3.67,2.8a6.46,6.46 0 0 0 -5.83,-3.43a5.85,5.85 0 0 0 -4.35,2a6.82,6.82 0 0 0 -1.65,4.86a6.7,6.7 0 0 0 1.9,4.73a5.46,5.46 0 0 0 4.18,1.79c2.86,-0.08 4.78,-1.78 5.11,-4l-6.39,0.16l-0.08,-3.71l11.18,-0.28l0.3,11.41l-3.11,0.08l0.01,0z" class="cls-2"/>
  </g>
  <path id="svg_12" fill="#ffffff" d="m207.39,48l-2.7,-9.14l-2.56,-0.59l-1.88,8.07l-4.76,-1.1l4.78,-20.48l9,2.07c4.91,1.14 7.18,4 6.29,7.81c-0.69,3 -2.66,4.36 -5.86,4.94l2.84,9.6l-5.15,-1.18zm-3.26,-18.28l-1.13,4.72l4.68,1.09c1.76,0.4 2.82,-0.31 3.16,-1.74s-0.31,-2.54 -2.07,-2.94l-4.67,-1.09l0.03,-0.04z" class="cls-2"/>
  <path id="svg_13" fill="#ffffff" d="m218,51l17.36,-14.71l4.07,2.1l-2.11,22.61l-4.71,-2.43l0.66,-5.38l-6.53,-3.39l-4,3.64l-4.74,-2.44zm14.74,-6.62l-2.74,2.48l3.8,2l0.46,-3.62c0.08,-0.87 0.23,-1.74 0.38,-2.61l-1.93,1.81l0.03,-0.06z" class="cls-2"/>
  <path id="svg_14" fill="#ffffff" d="m242.37,64.8l14.12,-15.63l3.63,3.26l-2.27,14a16.52,16.52 0 0 1 -0.44,1.83l9.12,-10.09l3.54,3.17l-14.07,15.66l-3.63,-3.26l2.33,-14.07a16.52,16.52 0 0 1 0.44,-1.83l-9.23,10.16l-3.54,-3.17l0,-0.03z" class="cls-2"/>
  <polygon id="svg_15" fill="#ffffff" points="274.04 72.3 277.56 69.87 287.44 84.11 283.92 86.54 280.37 81.42 266.53 90.97 263.75 86.96 277.59 77.42 274.04 72.3 274.04 72.3" class="cls-2"/>
  <path id="svg_16" fill="#ffffff" d="m77.44,208.74c-4.66,-0.55 -7.44,-2.27 -9.39,-6.24a10.43,10.43 0 0 1 5.07,-14.62a10.51,10.51 0 0 1 8.51,-0.62a10.91,10.91 0 0 1 6.21,5.74c2,4 1.51,8.1 -0.86,10.88l-4.33,-2.41c1.78,-2.2 2.14,-4.41 1.06,-6.63a5.82,5.82 0 0 0 -3.48,-3.06a7,7 0 0 0 -8.37,4.07a5.68,5.68 0 0 0 0.26,4.65c1.15,2.35 3.09,3.31 6.14,3.44l-0.82,4.77l0,0.03z" class="cls-2"/>
  <path id="svg_17" fill="#ffffff" d="m102.6,231.41a10.73,10.73 0 0 1 -7.91,2.86a10.87,10.87 0 0 1 -7.69,-3.81a11,11 0 1 1 16.37,-14.58a10.7,10.7 0 0 1 2.94,8a10.59,10.59 0 0 1 -3.73,7.52m-12.21,-4a6,6 0 0 0 4.26,2.13a7.09,7.09 0 0 0 7,-6.24a6.49,6.49 0 0 0 -5.91,-6.59a7.09,7.09 0 0 0 -7,6.25a6,6 0 0 0 1.65,4.45" class="cls-2"/>
  <path id="svg_18" fill="#ffffff" d="m106.26,247.73l11.22,-17.82l4.14,2.59l0.18,14.19a16,16 0 0 1 -0.12,1.88l7.25,-11.51l4,2.53l-11.22,17.82l-4.14,-2.59l-0.13,-14.27a16,16 0 0 1 0.12,-1.88l-7.3,11.58l-4,-2.52z" class="cls-2"/>
  <path id="svg_19" fill="#ffffff" d="m135.83,263.76l6,-20.17l4.68,1.38l4,13.63a14.74,14.74 0 0 1 0.39,1.84l3.87,-13l4.57,1.35l-6,20.17l-4.69,-1.38l-4,-13.71a15.53,15.53 0 0 1 -0.39,-1.84l-3.9,13.11l-4.57,-1.35l0.04,-0.03z" class="cls-2"/>
  <polygon id="svg_20" fill="#ffffff" points="167.88 271.09 168.65 250.08 184.04 250.64 183.88 254.91 173.38 254.53 173.24 258.34 182.91 258.69 182.75 262.82 173.09 262.48 172.92 267.01 183.52 267.39 183.36 271.65 167.88 271.09 167.88 271.09" class="cls-2"/>
  <path id="svg_21" fill="#ffffff" d="m215.51,261.3c-1.63,4.38 -4,6.67 -8.3,7.6a10.77,10.77 0 0 1 -8.36,-1.29a10.56,10.56 0 0 1 -4.69,-7.06a10.44,10.44 0 0 1 1.4,-8.39a11,11 0 0 1 7.1,-4.64c4.39,-1 8.24,0.46 10.4,3.4l-3.38,3.62c-1.72,-2.24 -3.79,-3.11 -6.2,-2.59a5.86,5.86 0 0 0 -3.81,2.64a6.95,6.95 0 0 0 2,9.06a5.78,5.78 0 0 0 4.6,0.85c2.56,-0.55 4,-2.21 4.8,-5.13l4.46,1.93l-0.02,0z" class="cls-2"/>
  <polygon id="svg_22" fill="#ffffff" points="220.54 247.18 218.62 243.37 234.13 235.59 236.06 239.41 230.48 242.2 238.04 257.17 233.68 259.36 226.12 244.39 220.54 247.18 220.54 247.18" class="cls-2"/>
  <polygon id="svg_23" fill="#ffffff" points="251.69 248.82 239.18 231.89 243.11 229 255.62 245.94 251.69 248.82 251.69 248.82" class="cls-2"/>
  <path id="svg_24" fill="#ffffff" d="m272.18,214.92a10.59,10.59 0 0 1 3.73,7.52a11.11,11.11 0 0 1 -18.52,9a10.75,10.75 0 0 1 -0.78,-15.53a10.78,10.78 0 0 1 15.57,-1m-2.58,12.52a6,6 0 0 0 1.65,-4.45a7.11,7.11 0 0 0 -7,-6.25a6,6 0 0 0 -4.26,2.13a5.93,5.93 0 0 0 -1.65,4.45a6.32,6.32 0 0 0 2.32,4.45a6.4,6.4 0 0 0 4.69,1.81a6,6 0 0 0 4.26,-2.14" class="cls-2"/>
  <path id="svg_25" fill="#ffffff" d="m288.05,209.56l-19,-9.13l2.12,-4.38l14.13,-1.74a14.49,14.49 0 0 1 1.89,-0.1l-12.27,-5.9l2.08,-4.31l19,9.13l-2.12,4.39l-14.21,1.7a16.72,16.72 0 0 1 -1.89,0.1l12.35,5.93l-2.07,4.27l-0.01,0.04z" class="cls-2"/>
  <path id="svg_26" fill="#ffffff" d="m156.71,313.37c0,3.69 -1.16,6.51 -3.46,8.47s-5.59,2.93 -9.84,2.93l-3.12,0l0,12.23l-7.29,0l0,-34.32l11,0q6.24,0 9.49,2.68c2.13,1.79 3.22,4.46 3.22,8.01zm-16.42,5.44l2.39,0a8,8 0 0 0 5,-1.32a4.63,4.63 0 0 0 1.66,-3.86a4.78,4.78 0 0 0 -1.39,-3.78a6.55,6.55 0 0 0 -4.37,-1.22l-3.31,0l0.02,10.18z" class="cls-3"/>
  <path id="svg_27" fill="#ffffff" d="m192.59,319.49q0,8.47 -4.82,13t-13.92,4.51l-9.71,0l0,-34.32l10.76,0q8.4,0 13,4.43t4.69,12.38zm-7.56,0.19q0,-11 -9.75,-11.05l-3.87,0l0,22.37l3.12,0q10.47,0 10.47,-11.32l0.03,0z" class="cls-3"/>
  <path id="svg_28" fill="#ffffff" d="m228.37,337l-8.3,0l-8,-13l-8,13l-7.79,0l11.37,-17.68l-10.64,-16.6l8,0l7.46,12.28l7.25,-12.33l7.83,0l-10.76,17l11.58,17.33z" class="cls-3"/>
 </g>
</svg>